# Created by FreeCAD <http://www.freecadweb.org>
v 19.214766 -20.366463 100.000000
v 16.720440 -22.459450 0.000000
v 19.214766 -20.366463 0.000000
v 16.720440 -22.459450 100.000000
v 21.449244 -17.998053 100.000000
v 21.449244 -17.998053 0.000000
v -27.810675 -3.250602 100.000000
v -28.000000 0.000000 0.000000
v -27.810675 -3.250602 0.000000
v -28.000000 0.000000 100.000000
v 23.393660 -15.386251 100.000000
v 23.393660 -15.386251 0.000000
v -27.245256 -6.457244 100.000000
v -27.245256 -6.457244 0.000000
v 25.021713 -12.566377 100.000000
v 25.021713 -12.566377 0.000000
v -26.311394 -9.576564 100.000000
v -26.311394 -9.576564 0.000000
v 26.311394 -9.576564 100.000000
v 26.311394 -9.576564 0.000000
v -25.021713 -12.566377 100.000000
v -25.021713 -12.566377 0.000000
v 27.245256 -6.457244 100.000000
v 27.245256 -6.457244 0.000000
v -23.393660 -15.386251 100.000000
v -23.393660 -15.386251 0.000000
v 27.810675 -3.250602 100.000000
v 27.810675 -3.250602 0.000000
v 28.000000 -0.000000 100.000000
v 28.000000 -0.000000 0.000000
v -21.449244 -17.998053 100.000000
v -21.449244 -17.998053 0.000000
v -19.214766 -20.366463 100.000000
v -19.214766 -20.366463 0.000000
v -16.720440 -22.459450 0.000000
v -16.720440 -22.459450 100.000000
v -14.000000 -24.248711 0.000000
v -14.000000 -24.248711 100.000000
v -11.090234 -25.710051 100.000000
v -11.090234 -25.710051 0.000000
v -8.030491 -26.823706 100.000000
v -8.030491 -26.823706 0.000000
v -4.862149 -27.574617 100.000000
v -4.862149 -27.574617 0.000000
v -1.628055 -27.952629 100.000000
v -1.628055 -27.952629 0.000000
v 1.628055 -27.952629 0.000000
v 1.628055 -27.952629 100.000000
v 4.862149 -27.574617 100.000000
v 4.862149 -27.574617 0.000000
v 8.030491 -26.823706 100.000000
v 8.030491 -26.823706 0.000000
v 11.090234 -25.710051 100.000000
v 11.090234 -25.710051 0.000000
v 14.000000 -24.248711 100.000000
v 14.000000 -24.248711 0.000000
v -25.000000 0.000000 3.000000
v 25.000000 -0.000000 3.000000
v -25.000000 0.000000 97.000000
v 25.000000 -0.000000 97.000000
v 21.907667 -12.043842 3.000000
v 21.907667 -12.043842 97.000000
v 23.244411 -9.203114 3.000000
v 20.225426 -14.694632 97.000000
v 23.244411 -9.203114 97.000000
v 24.214579 -6.217247 3.000000
v -24.802868 -3.133331 97.000000
v -24.802868 -3.133331 3.000000
v 24.214579 -6.217247 97.000000
v 24.802868 -3.133331 3.000000
v -24.214579 -6.217247 97.000000
v -24.214579 -6.217247 3.000000
v 24.802868 -3.133331 97.000000
v -23.244411 -9.203114 97.000000
v -23.244411 -9.203114 3.000000
v -21.907667 -12.043842 97.000000
v -21.907667 -12.043842 3.000000
v -20.225426 -14.694632 97.000000
v -20.225426 -14.694632 3.000000
v -18.224216 -17.113678 3.000000
v -18.224216 -17.113678 97.000000
v -15.935599 -19.262831 97.000000
v -15.935599 -19.262831 3.000000
v -13.395670 -21.108198 3.000000
v -13.395670 -21.108198 97.000000
v -10.644483 -22.620676 3.000000
v -10.644483 -22.620676 97.000000
v -7.725425 -23.776413 97.000000
v -7.725425 -23.776413 3.000000
v -4.684533 -24.557180 3.000000
v -4.684533 -24.557180 97.000000
v -1.569763 -24.950668 3.000000
v -1.569763 -24.950668 97.000000
v 1.569763 -24.950668 97.000000
v 1.569763 -24.950668 3.000000
v 4.684533 -24.557180 3.000000
v 4.684533 -24.557180 97.000000
v 7.725425 -23.776413 3.000000
v 7.725425 -23.776413 97.000000
v 10.644483 -22.620676 3.000000
v 10.644483 -22.620676 97.000000
v 13.395670 -21.108198 3.000000
v 13.395670 -21.108198 97.000000
v 15.935599 -19.262831 3.000000
v 15.935599 -19.262831 97.000000
v 18.224216 -17.113678 97.000000
v 18.224216 -17.113678 3.000000
v 20.225426 -14.694632 3.000000
vn 0.642788 -0.766045 0.000000
vn 0.642788 -0.766045 0.000000
vn 0.727374 -0.686241 0.000000
vn 0.727374 -0.686241 0.000000
vn -0.998308 -0.058145 -0.000000
vn -0.998308 -0.058145 0.000000
vn 0.802123 -0.597159 0.000000
vn 0.802123 -0.597159 0.000000
vn -0.984808 -0.173648 -0.000000
vn -0.984808 -0.173648 0.000000
vn 0.866026 -0.500000 0.000000
vn 0.866026 -0.500000 0.000000
vn -0.957990 -0.286803 -0.000000
vn -0.957990 -0.286803 0.000000
vn 0.918216 -0.396080 0.000000
vn 0.918216 -0.396080 0.000000
vn -0.918216 -0.396080 -0.000000
vn -0.918216 -0.396080 0.000000
vn 0.957990 -0.286803 0.000000
vn 0.957990 -0.286803 0.000000
vn -0.866026 -0.500000 -0.000000
vn -0.866026 -0.500000 0.000000
vn 0.984808 -0.173648 0.000000
vn 0.984808 -0.173648 0.000000
vn 0.998308 -0.058145 0.000000
vn -0.802123 -0.597159 -0.000000
vn 0.998308 -0.058145 0.000000
vn -0.802123 -0.597159 0.000000
vn -0.727374 -0.686241 -0.000000
vn -0.642788 -0.766045 -0.000000
vn -0.727374 -0.686241 0.000000
vn -0.549509 -0.835488 -0.000000
vn -0.642788 -0.766045 -0.000000
vn -0.549509 -0.835488 -0.000000
vn -0.448799 -0.893633 -0.000000
vn -0.448799 -0.893633 0.000000
vn -0.342020 -0.939693 0.000000
vn -0.342020 -0.939693 -0.000000
vn -0.230616 -0.973045 0.000000
vn -0.230616 -0.973045 -0.000000
vn -0.116093 -0.993238 0.000000
vn -0.116093 -0.993238 -0.000000
vn 0.000000 -1.000000 0.000000
vn -0.000000 -1.000000 -0.000000
vn 0.116093 -0.993238 0.000000
vn 0.116093 -0.993238 0.000000
vn 0.230616 -0.973045 0.000000
vn 0.230616 -0.973045 0.000000
vn 0.342020 -0.939693 0.000000
vn 0.342020 -0.939693 0.000000
vn 0.448799 -0.893633 0.000000
vn 0.448799 -0.893633 0.000000
vn 0.549509 -0.835488 0.000000
vn 0.549509 -0.835488 0.000000
vn 0.000000 1.000000 -0.000000
vn 0.000000 1.000000 -0.000000
vn 0.000000 1.000000 0.000000
vn 0.000000 1.000000 0.000000
vn 0.000000 1.000000 0.000000
vn 0.000000 1.000000 0.000000
vn 0.000000 1.000000 0.000000
vn 0.000000 1.000000 0.000000
vn 0.000000 0.000000 -1.000000
vn 0.000000 0.000000 -1.000000
vn 0.000000 0.000000 -1.000000
vn 0.000000 0.000000 -1.000000
vn 0.000000 0.000000 -1.000000
vn 0.000000 0.000000 -1.000000
vn 0.000000 0.000000 -1.000000
vn 0.000000 0.000000 -1.000000
vn 0.000000 0.000000 -1.000000
vn 0.000000 0.000000 -1.000000
vn 0.000000 0.000000 -1.000000
vn 0.000000 0.000000 -1.000000
vn 0.000000 0.000000 -1.000000
vn 0.000000 0.000000 -1.000000
vn 0.000000 0.000000 -1.000000
vn 0.000000 0.000000 -1.000000
vn 0.000000 0.000000 -1.000000
vn 0.000000 0.000000 -1.000000
vn 0.000000 0.000000 -1.000000
vn 0.000000 0.000000 -1.000000
vn 0.000000 0.000000 -1.000000
vn 0.000000 0.000000 -1.000000
vn 0.000000 0.000000 -1.000000
vn 0.000000 0.000000 -1.000000
vn 0.000000 0.000000 -1.000000
vn 0.000000 0.000000 -1.000000
vn 0.000000 0.000000 1.000000
vn 0.000000 0.000000 1.000000
vn 0.000000 0.000000 1.000000
vn 0.000000 0.000000 1.000000
vn 0.000000 0.000000 1.000000
vn 0.000000 0.000000 1.000000
vn 0.000000 0.000000 1.000000
vn 0.000000 0.000000 1.000000
vn 0.000000 0.000000 1.000000
vn 0.000000 0.000000 1.000000
vn 0.000000 0.000000 1.000000
vn 0.000000 0.000000 1.000000
vn 0.000000 0.000000 1.000000
vn 0.000000 0.000000 1.000000
vn 0.000000 0.000000 1.000000
vn 0.000000 0.000000 1.000000
vn 0.000000 0.000000 1.000000
vn 0.000000 0.000000 1.000000
vn 0.000000 0.000000 1.000000
vn 0.000000 0.000000 1.000000
vn 0.000000 0.000000 1.000000
vn 0.000000 0.000000 1.000000
vn 0.000000 0.000000 1.000000
vn 0.000000 0.000000 1.000000
vn 0.000000 0.000000 1.000000
vn 0.000000 0.000000 1.000000
vn -0.904827 0.425779 0.000000
vn -0.844328 0.535827 0.000000
vn -0.951057 0.309017 0.000000
vn -0.904827 0.425779 0.000000
vn 0.998027 0.062790 0.000000
vn 0.998027 0.062790 0.000000
vn -0.982287 0.187382 0.000000
vn -0.951057 0.309017 0.000000
vn 0.982287 0.187382 0.000000
vn 0.982287 0.187382 0.000000
vn -0.982287 0.187382 0.000000
vn -0.998027 0.062790 0.000000
vn -0.998027 0.062790 0.000000
vn 0.951057 0.309017 0.000000
vn 0.951057 0.309017 0.000000
vn 0.904827 0.425779 0.000000
vn 0.904827 0.425779 0.000000
vn 0.844328 0.535827 0.000000
vn 0.770513 0.637424 -0.000000
vn 0.844328 0.535827 0.000000
vn 0.770513 0.637424 0.000000
vn 0.684547 0.728969 0.000000
vn 0.587785 0.809017 -0.000000
vn 0.684547 0.728969 0.000000
vn 0.481754 0.876307 -0.000000
vn 0.587785 0.809017 0.000000
vn 0.481754 0.876307 0.000000
vn 0.368125 0.929776 0.000000
vn 0.248690 0.968583 -0.000000
vn 0.368125 0.929776 0.000000
vn 0.248690 0.968583 0.000000
vn 0.125334 0.992115 -0.000000
vn 0.125334 0.992115 0.000000
vn -0.000000 1.000000 0.000000
vn 0.000000 1.000000 0.000000
vn -0.125334 0.992115 0.000000
vn -0.125334 0.992115 0.000000
vn -0.248690 0.968583 0.000000
vn -0.248690 0.968583 0.000000
vn -0.368125 0.929776 0.000000
vn -0.481754 0.876307 0.000000
vn -0.368125 0.929776 0.000000
vn -0.587785 0.809017 0.000000
vn -0.481754 0.876307 0.000000
vn -0.587785 0.809017 0.000000
vn -0.684547 0.728969 0.000000
vn -0.770513 0.637424 0.000000
vn -0.684547 0.728969 0.000000
vn -0.844328 0.535827 0.000000
vn -0.770513 0.637424 0.000000
vn 0.000000 0.000000 1.000000
vn 0.000000 0.000000 1.000000
vn 0.000000 0.000000 1.000000
vn 0.000000 0.000000 1.000000
vn 0.000000 0.000000 1.000000
vn 0.000000 0.000000 1.000000
vn 0.000000 0.000000 1.000000
vn 0.000000 0.000000 1.000000
vn 0.000000 0.000000 1.000000
vn 0.000000 0.000000 1.000000
vn 0.000000 0.000000 1.000000
vn 0.000000 0.000000 1.000000
vn 0.000000 0.000000 1.000000
vn 0.000000 0.000000 1.000000
vn 0.000000 0.000000 1.000000
vn 0.000000 0.000000 1.000000
vn 0.000000 0.000000 1.000000
vn 0.000000 0.000000 1.000000
vn 0.000000 0.000000 1.000000
vn 0.000000 0.000000 1.000000
vn 0.000000 0.000000 1.000000
vn 0.000000 0.000000 1.000000
vn 0.000000 0.000000 1.000000
vn 0.000000 0.000000 1.000000
vn 0.000000 0.000000 -1.000000
vn 0.000000 0.000000 -1.000000
vn 0.000000 0.000000 -1.000000
vn 0.000000 0.000000 -1.000000
vn 0.000000 0.000000 -1.000000
vn 0.000000 0.000000 -1.000000
vn 0.000000 0.000000 -1.000000
vn 0.000000 0.000000 -1.000000
vn 0.000000 0.000000 -1.000000
vn 0.000000 0.000000 -1.000000
vn 0.000000 0.000000 -1.000000
vn 0.000000 0.000000 -1.000000
vn 0.000000 0.000000 -1.000000
vn 0.000000 0.000000 -1.000000
vn 0.000000 0.000000 -1.000000
vn 0.000000 0.000000 -1.000000
vn 0.000000 0.000000 -1.000000
vn 0.000000 0.000000 -1.000000
vn 0.000000 0.000000 -1.000000
vn 0.000000 0.000000 -1.000000
vn 0.000000 0.000000 -1.000000
vn 0.000000 0.000000 -1.000000
vn 0.000000 0.000000 -1.000000
vn 0.000000 0.000000 -1.000000
f 1//1 2//1 3//1
f 1//2 4//2 2//2
f 5//3 3//3 6//3
f 5//4 1//4 3//4
f 7//5 8//5 9//5
f 7//6 10//6 8//6
f 11//7 6//7 12//7
f 11//8 5//8 6//8
f 13//9 9//9 14//9
f 13//10 7//10 9//10
f 15//11 12//11 16//11
f 15//12 11//12 12//12
f 17//13 14//13 18//13
f 17//14 13//14 14//14
f 19//15 16//15 20//15
f 19//16 15//16 16//16
f 21//17 18//17 22//17
f 21//18 17//18 18//18
f 23//19 20//19 24//19
f 23//20 19//20 20//20
f 25//21 22//21 26//21
f 25//22 21//22 22//22
f 27//23 24//23 28//23
f 27//24 23//24 24//24
f 29//25 28//25 30//25
f 31//26 26//26 32//26
f 29//27 27//27 28//27
f 31//28 25//28 26//28
f 33//29 32//29 34//29
f 33//30 34//30 35//30
f 33//31 31//31 32//31
f 36//32 35//32 37//32
f 36//33 33//33 35//33
f 38//34 36//34 37//34
f 39//35 37//35 40//35
f 39//36 38//36 37//36
f 41//37 39//37 40//37
f 41//38 40//38 42//38
f 43//39 41//39 42//39
f 43//40 42//40 44//40
f 45//41 43//41 44//41
f 45//42 44//42 46//42
f 45//43 46//43 47//43
f 48//44 45//44 47//44
f 49//45 48//45 47//45
f 49//46 47//46 50//46
f 51//47 50//47 52//47
f 51//48 49//48 50//48
f 53//49 52//49 54//49
f 53//50 51//50 52//50
f 55//51 54//51 56//51
f 55//52 53//52 54//52
f 4//53 56//53 2//53
f 4//54 55//54 56//54
f 30//55 57//55 58//55
f 30//56 8//56 57//56
f 59//57 8//57 10//57
f 59//58 57//58 8//58
f 29//59 60//59 59//59
f 29//60 59//60 10//60
f 29//61 30//61 58//61
f 29//62 58//62 60//62
f 26//63 22//63 32//63
f 34//64 40//64 35//64
f 35//65 40//65 37//65
f 22//66 18//66 32//66
f 40//67 44//67 42//67
f 9//68 8//68 14//68
f 14//69 8//69 18//69
f 32//70 8//70 34//70
f 34//71 8//71 40//71
f 18//72 8//72 32//72
f 40//73 8//73 44//73
f 44//74 50//74 46//74
f 46//75 50//75 47//75
f 8//76 50//76 44//76
f 50//77 54//77 52//77
f 50//78 56//78 54//78
f 2//79 12//79 3//79
f 3//80 12//80 6//80
f 56//81 20//81 2//81
f 12//82 20//82 16//82
f 50//83 20//83 56//83
f 2//84 20//84 12//84
f 20//85 28//85 24//85
f 8//86 30//86 50//86
f 20//87 30//87 28//87
f 50//88 30//88 20//88
f 21//89 25//89 31//89
f 39//90 33//90 36//90
f 39//91 36//91 38//91
f 17//92 21//92 31//92
f 43//93 39//93 41//93
f 10//94 7//94 13//94
f 10//95 13//95 17//95
f 10//96 31//96 33//96
f 10//97 33//97 39//97
f 10//98 17//98 31//98
f 10//99 39//99 43//99
f 49//100 43//100 45//100
f 49//101 45//101 48//101
f 49//102 10//102 43//102
f 53//103 49//103 51//103
f 55//104 49//104 53//104
f 11//105 4//105 1//105
f 11//106 1//106 5//106
f 19//107 55//107 4//107
f 19//108 11//108 15//108
f 19//109 49//109 55//109
f 19//110 4//110 11//110
f 27//111 19//111 23//111
f 29//112 10//112 49//112
f 29//113 19//113 27//113
f 29//114 49//114 19//114
f 61//115 62//115 63//115
f 64//116 62//116 61//116
f 63//117 65//117 66//117
f 62//118 65//118 63//118
f 57//119 67//119 68//119
f 59//120 67//120 57//120
f 66//121 69//121 70//121
f 65//122 69//122 66//122
f 68//123 71//123 72//123
f 67//124 71//124 68//124
f 69//125 73//125 70//125
f 70//126 60//126 58//126
f 73//127 60//127 70//127
f 72//128 74//128 75//128
f 71//129 74//129 72//129
f 75//130 76//130 77//130
f 74//131 76//131 75//131
f 77//132 78//132 79//132
f 79//133 78//133 80//133
f 76//134 78//134 77//134
f 78//135 81//135 80//135
f 80//136 82//136 83//136
f 83//137 82//137 84//137
f 81//138 82//138 80//138
f 84//139 85//139 86//139
f 82//140 85//140 84//140
f 85//141 87//141 86//141
f 86//142 88//142 89//142
f 89//143 88//143 90//143
f 87//144 88//144 86//144
f 88//145 91//145 90//145
f 90//146 91//146 92//146
f 91//147 93//147 92//147
f 93//148 94//148 92//148
f 92//149 94//149 95//149
f 95//150 94//150 96//150
f 94//151 97//151 96//151
f 96//152 97//152 98//152
f 97//153 99//153 98//153
f 98//154 99//154 100//154
f 100//155 101//155 102//155
f 99//156 101//156 100//156
f 102//157 103//157 104//157
f 101//158 103//158 102//158
f 103//159 105//159 104//159
f 104//160 106//160 107//160
f 107//161 106//161 108//161
f 105//162 106//162 104//162
f 108//163 64//163 61//163
f 106//164 64//164 108//164
f 84//165 80//165 83//165
f 75//166 77//166 79//166
f 75//167 79//167 80//167
f 68//168 72//168 75//168
f 92//169 86//169 89//169
f 92//170 89//170 90//170
f 57//171 68//171 75//171
f 96//172 92//172 95//172
f 100//173 84//173 86//173
f 100//174 96//174 98//174
f 100//175 80//175 84//175
f 100//176 75//176 80//176
f 100//177 86//177 92//177
f 100//178 92//178 96//178
f 100//179 57//179 75//179
f 107//180 100//180 102//180
f 107//181 102//181 104//181
f 61//182 107//182 108//182
f 61//183 57//183 100//183
f 61//184 100//184 107//184
f 70//185 61//185 63//185
f 70//186 63//186 66//186
f 70//187 57//187 61//187
f 58//188 57//188 70//188
f 81//189 85//189 82//189
f 76//190 74//190 78//190
f 78//191 74//191 81//191
f 71//192 67//192 74//192
f 87//193 93//193 88//193
f 88//194 93//194 91//194
f 67//195 59//195 74//195
f 93//196 97//196 94//196
f 85//197 101//197 87//197
f 97//198 101//198 99//198
f 81//199 101//199 85//199
f 74//200 101//200 81//200
f 87//201 101//201 93//201
f 93//202 101//202 97//202
f 59//203 101//203 74//203
f 101//204 106//204 103//204
f 103//205 106//205 105//205
f 106//206 62//206 64//206
f 59//207 62//207 101//207
f 101//208 62//208 106//208
f 62//209 73//209 65//209
f 65//210 73//210 69//210
f 59//211 73//211 62//211
f 59//212 60//212 73//212
