# Created by FreeCAD <http://www.freecadweb.org>
v -9.284858 -3.713678 1.494912
v -8.639695 -5.035441 1.775121
v -9.238795 -3.826834 60.000000
v -8.314696 -5.555702 60.000000
v -7.781382 -6.280931 2.111611
v -7.071068 -7.071068 60.000000
v 10.000000 -0.000000 60.000000
v 9.820890 1.884173 1.243520
v 9.807853 1.950903 60.000000
v -6.698809 -7.424685 2.479664
v -5.555702 -8.314696 60.000000
v 10.000000 -0.000000 1.155644
v -5.211224 -8.534820 2.888196
v -3.826834 -9.238795 60.000000
v 9.282952 3.718440 1.495775
v 9.238795 3.826834 60.000000
v -3.555642 -9.346519 3.217277
v -1.950903 -9.807853 60.000000
v 8.480220 5.299610 1.840726
v 8.314696 5.555702 60.000000
v -1.822769 -9.832473 3.426045
v 7.379025 6.749073 2.255587
v 7.071068 7.071068 60.000000
v -0.304566 -9.995361 3.497939
v 0.000000 -10.000000 60.000000
v 6.008285 7.993780 2.682955
v 5.555702 8.314696 60.000000
v 1.166606 -9.931718 3.469736
v 1.950903 -9.807853 60.000000
v 2.578000 -9.661983 3.351821
v 3.826834 -9.238795 60.000000
v 4.430573 8.964933 3.059466
v 3.826834 9.238795 60.000000
v 2.720402 9.622859 3.334937
v 1.950903 9.807853 60.000000
v 3.884895 -9.214531 3.162076
v 0.977045 9.952155 3.478776
v 0.000000 10.000000 60.000000
v 5.412354 -8.408711 2.839332
v 5.555702 -8.314696 60.000000
v -0.564888 9.984033 3.492908
v -1.950903 9.807853 60.000000
v 6.910039 -7.228510 2.412645
v 7.071068 -7.071068 60.000000
v -1.979858 9.802049 3.412723
v 8.175842 -5.758090 1.962004
v 8.314696 -5.555702 60.000000
v -3.311928 9.435631 3.254913
v -3.826834 9.238795 60.000000
v 9.137702 -4.062316 1.560944
v 9.238795 -3.826834 60.000000
v -4.895557 8.719720 2.960954
v -5.555702 8.314696 60.000000
v 9.620422 -2.729005 1.339554
v -6.453189 7.639133 2.554729
v -7.071068 7.071068 60.000000
v 9.807853 -1.950903 60.000000
v 9.905137 -1.374140 1.202432
v -7.801014 6.256531 2.104364
v -8.314696 5.555702 60.000000
v -8.866725 4.623979 1.679245
v -9.238795 3.826834 60.000000
v -9.434867 3.314105 1.426289
v -9.807853 1.950903 60.000000
v -9.813231 1.923663 1.247234
v -9.987274 0.504327 1.161953
v -10.000000 -0.000000 60.000000
v -9.957332 -0.922791 1.176758
v -9.807853 -1.950903 60.000000
v -9.723360 -2.335864 1.290546
v 1.390015 -6.860602 3.457022
v 2.444602 -6.559262 3.366804
v -6.999613 -0.073580 2.383531
v -1.741492 6.779912 3.432503
v -0.630302 6.971565 3.491170
v 0.268898 -6.994833 3.498393
v -2.769141 6.428986 3.328947
v -0.865472 -6.946291 3.483348
v -3.682927 5.952818 3.196532
v 7.000000 -0.000000 2.383405
v -4.477586 5.380634 3.049971
v 6.845961 1.460420 2.433218
v 6.379843 2.880556 2.576552
v 6.966712 -0.681849 2.394273
v -1.959372 -6.720183 3.414523
v 6.866833 -1.358896 2.426540
v -2.961952 -6.342463 3.304189
v 5.588343 4.215498 2.794963
v -5.353256 4.510283 2.853893
v 4.447762 5.405313 3.056006
v -6.103837 3.426832 2.656250
v -3.876549 -5.828582 3.163537
v 6.519861 -2.547825 2.534656
v 5.950325 -3.686955 2.698932
v 3.626498 5.987362 3.205822
v -6.622025 2.269095 2.503460
v 2.670514 6.470576 3.340957
v 5.146452 -4.744895 2.903516
v -6.918300 1.066361 2.409977
v 1.629542 6.807686 3.440913
v -4.851981 -5.045620 2.970623
v -5.632061 -4.156909 2.783707
v 4.222527 -5.583034 3.100232
v 0.511630 6.981277 3.494182
v 3.392009 -6.123257 3.242848
v -6.228539 -3.194575 2.620715
v -6.651421 -2.181420 2.494385
v -6.907264 -1.135649 2.413540
v -4.803691 5.091616 60.000000
v -3.500000 6.062178 60.000000
v 5.362311 -4.499513 60.000000
v 6.255428 -3.141594 60.000000
v -2.007623 6.705926 60.000000
v 6.811314 -1.614311 60.000000
v -4.803691 -5.091616 60.000000
v -0.407014 6.988157 60.000000
v -5.848415 -3.846563 60.000000
v 7.000000 -0.000000 60.000000
v -3.500000 -6.062178 60.000000
v -6.577848 -2.394141 60.000000
v -2.007623 -6.705926 60.000000
v -6.952669 -0.812650 60.000000
v -0.407014 -6.988157 60.000000
v -6.952669 0.812650 60.000000
v 1.215537 -6.893654 60.000000
v 1.215537 6.893654 60.000000
v 2.772558 6.427513 60.000000
v 6.811314 1.614311 60.000000
v -6.577848 2.394141 60.000000
v 6.255428 3.141594 60.000000
v 2.772558 -6.427513 60.000000
v 5.362311 4.499513 60.000000
v 4.180110 5.614862 60.000000
v -5.848415 3.846563 60.000000
v 4.180110 -5.614862 60.000000
vn -0.898649 -0.438667 -0.000141
vn -0.881921 -0.471397 0.000711
vn -0.773010 -0.634393 0.000826
vn -0.823352 -0.567531 -0.000475
vn 0.995185 0.098017 0.000110
vn -0.726188 -0.687496 -0.000473
vn -0.634393 -0.773010 0.000647
vn 0.995512 0.094633 0.000000
vn -0.471397 -0.881921 0.000556
vn 0.956940 0.290285 0.000184
vn -0.597992 -0.801502 -0.000518
vn 0.959581 0.281432 -0.000107
vn -0.290285 -0.956940 0.000429
vn -0.440154 -0.897922 -0.000399
vn 0.881921 0.471397 0.000434
vn 0.891656 0.452714 -0.000166
vn -0.269995 -0.962862 -0.000192
vn 0.773010 0.634393 0.000585
vn 0.796212 0.605017 -0.000398
vn -0.098017 -0.995185 0.000447
vn -0.106687 -0.994293 0.000191
vn 0.634393 0.773010 0.000681
vn 0.672159 0.740406 -0.000544
vn 0.098017 -0.995184 0.000821
vn 0.043214 -0.999066 -0.000315
vn 0.290285 -0.956940 0.000749
vn 0.471397 0.881921 0.000757
vn 0.187678 -0.982230 -0.000452
vn 0.524088 0.851664 -0.000630
vn 0.358963 0.933352 -0.000683
vn 0.290285 0.956940 0.000818
vn 0.323909 -0.946088 -0.000073
vn 0.185549 0.982635 -0.000688
vn 0.098017 0.995184 0.000852
vn 0.471397 -0.881921 0.000268
vn 0.466621 -0.884457 0.000099
vn 0.020665 0.999786 -0.000489
vn -0.098017 0.995184 0.000699
vn 0.634393 -0.773010 0.000339
vn 0.618893 -0.785475 -0.000260
vn -0.127561 0.991831 -0.000036
vn 0.773010 -0.634393 0.000363
vn -0.265227 0.964186 0.000037
vn 0.757818 -0.652466 -0.000335
vn -0.290285 0.956940 0.000685
vn 0.869783 -0.493435 -0.000360
vn 0.881921 -0.471397 0.000374
vn -0.411844 0.911254 -0.000576
vn -0.471397 0.881921 0.000807
vn 0.940259 -0.340460 -0.000255
vn -0.569870 0.821735 -0.000760
vn -0.634393 0.773010 0.000821
vn 0.956940 -0.290285 0.000793
vn 0.978617 -0.205689 -0.000398
vn 0.995184 -0.098017 0.000685
vn -0.715925 0.698177 -0.000796
vn 0.997626 -0.068870 0.000000
vn -0.773010 0.634393 0.000821
vn -0.837278 0.546776 -0.000810
vn -0.881921 0.471397 0.000817
vn -0.917391 0.397987 -0.000413
vn -0.956940 0.290285 0.000662
vn -0.964912 0.262575 -0.000033
vn -0.992566 0.121709 0.000034
vn -0.995185 0.098017 0.000625
vn -0.999780 -0.020981 -0.000396
vn -0.995184 -0.098017 0.000816
vn -0.986563 -0.163380 -0.000349
vn -0.956940 -0.290285 0.000526
vn -0.952911 -0.303249 0.000164
vn -0.085559 0.001133 -0.996333
vn 0.359454 -0.004393 -0.933152
vn 0.350607 -0.001055 -0.936522
vn 0.056841 -0.002051 -0.998381
vn 0.052821 -0.000571 -0.998604
vn 0.398841 0.000272 -0.917020
vn 0.407177 -0.000227 -0.913349
vn -0.441255 -0.000093 -0.897382
vn -0.083626 0.001958 -0.996495
vn 0.440484 -0.000071 -0.897760
vn -0.036701 -0.001467 -0.999325
vn 0.437823 0.000096 -0.899061
vn -0.425536 -0.000347 -0.904942
vn 0.428217 -0.000154 -0.903676
vn 0.422889 0.000178 -0.906181
vn -0.434400 0.000126 -0.900720
vn 0.118477 -0.003061 -0.992952
vn 0.099803 0.001359 -0.995006
vn -0.395332 -0.000313 -0.918538
vn -0.417284 0.000178 -0.908776
vn -0.019333 0.003846 -0.999806
vn 0.013160 -0.002364 -0.999911
vn 0.142700 0.001390 -0.989765
vn 0.183863 -0.003109 -0.982947
vn -0.385591 0.000494 -0.922670
vn -0.341332 -0.000913 -0.939943
vn -0.350316 0.001935 -0.936630
vn 0.183616 -0.003221 -0.982993
vn -0.311826 -0.000482 -0.950139
vn -0.299208 -0.001886 -0.954186
vn -0.299187 -0.001892 -0.954193
vn -0.332224 0.001185 -0.943200
vn 0.062598 -0.000947 -0.998038
vn 0.047729 0.004001 -0.998852
vn -0.325568 0.002967 -0.945514
vn 0.109815 0.001140 -0.993951
vn -0.264699 0.000832 -0.964331
vn -0.233778 -0.002840 -0.972286
vn 0.217381 0.001189 -0.976086
vn 0.254340 -0.003058 -0.967110
vn -0.223229 -0.000131 -0.974766
vn -0.335147 -0.000237 -0.942166
vn 0.257274 -0.001952 -0.966336
vn 0.151285 -0.001300 -0.988489
vn -0.297706 0.000069 -0.954658
vn 0.120940 0.004817 -0.992648
vn -0.280211 0.001665 -0.959937
vn -0.179397 0.000090 -0.983777
vn -0.160922 -0.005056 -0.986954
vn 0.282230 0.000286 -0.959347
vn -0.139806 0.000322 -0.990179
vn 0.317784 -0.000939 -0.948163
vn -0.276091 0.002877 -0.961127
vn -0.245596 -0.000842 -0.969372
vn 0.311715 -0.002934 -0.950171
vn -0.083215 -0.005268 -0.996518
vn -0.095707 -0.000386 -0.995410
vn 0.232033 -0.000911 -0.972707
vn 0.196295 0.002953 -0.980540
vn 0.196338 0.002931 -0.980532
vn -0.209890 0.001895 -0.977723
vn 0.321919 -0.000998 -0.946767
vn -0.047252 0.002223 -0.998881
vn -0.208087 0.002690 -0.978107
vn -0.168536 -0.001117 -0.985695
vn -0.009242 -0.003738 -0.999950
vn 0.363902 0.004993 -0.931424
vn 0.286458 0.000101 -0.958093
vn 0.267229 0.002423 -0.963630
vn 0.266646 0.002629 -0.963791
vn 0.002634 0.000520 -0.999996
vn 0.321651 -0.000249 -0.946858
vn -0.144619 0.002796 -0.989484
vn -0.129381 -0.000774 -0.991595
vn 0.320615 0.001115 -0.947209
vn 0.311705 0.002802 -0.950175
vn 0.000000 0.000000 1.000000
vn 0.000000 0.000000 1.000000
vn 0.000000 0.000000 1.000000
vn 0.000000 0.000000 1.000000
vn 0.000000 0.000000 1.000000
vn 0.000000 0.000000 1.000000
vn 0.000000 0.000000 1.000000
vn 0.000000 0.000000 1.000000
vn 0.000000 0.000000 1.000000
vn 0.000000 0.000000 1.000000
vn 0.000000 0.000000 1.000000
vn 0.000000 0.000000 1.000000
vn 0.000000 0.000000 1.000000
vn 0.000000 0.000000 1.000000
vn 0.000000 0.000000 1.000000
vn 0.000000 0.000000 1.000000
vn 0.000000 0.000000 1.000000
vn 0.000000 0.000000 1.000000
vn 0.000000 0.000000 1.000000
vn 0.000000 0.000000 1.000000
vn 0.000000 0.000000 1.000000
vn 0.000000 0.000000 1.000000
vn 0.000000 0.000000 1.000000
vn 0.000000 0.000000 1.000000
vn 0.000000 0.000000 1.000000
vn 0.000000 0.000000 1.000000
vn 0.000000 0.000000 1.000000
vn 0.000000 0.000000 1.000000
vn 0.000000 0.000000 1.000000
vn 0.000000 0.000000 1.000000
vn 0.000000 0.000000 1.000000
vn 0.000000 0.000000 1.000000
vn 0.000000 0.000000 1.000000
vn 0.000000 0.000000 1.000000
vn 0.000000 0.000000 1.000000
vn 0.000000 0.000000 1.000000
vn 0.000000 0.000000 1.000000
vn 0.000000 0.000000 1.000000
vn 0.000000 0.000000 1.000000
vn 0.000000 0.000000 1.000000
vn 0.000000 0.000000 1.000000
vn 0.000000 0.000000 1.000000
vn 0.000000 0.000000 1.000000
vn 0.000000 0.000000 1.000000
vn 0.000000 0.000000 1.000000
vn 0.000000 0.000000 1.000000
vn 0.000000 0.000000 1.000000
vn 0.000000 0.000000 1.000000
vn 0.000000 0.000000 1.000000
vn 0.000000 0.000000 1.000000
vn 0.000000 0.000000 1.000000
vn 0.000000 0.000000 1.000000
vn 0.000000 0.000000 1.000000
vn 0.000000 0.000000 1.000000
vn 0.000000 0.000000 1.000000
vn 0.000000 0.000000 1.000000
vn 0.000000 0.000000 1.000000
vn 0.000000 0.000000 1.000000
vn 0.000000 0.000000 1.000000
vn 0.849943 0.526875 0.000356
vn 0.893632 0.448799 -0.000820
vn -0.994483 -0.104894 -0.000000
vn 0.751557 0.659669 -0.000104
vn -0.950123 -0.311876 0.000262
vn 0.625958 0.779857 0.000099
vn -0.993238 -0.116093 -0.000287
vn 0.766044 0.642788 -0.000590
vn -0.860139 -0.510059 0.000455
vn 0.489802 0.871834 0.000338
vn -0.939692 -0.342020 -0.000481
vn 0.597158 0.802123 -0.000660
vn -0.721821 -0.692080 0.000584
vn -0.835488 -0.549509 -0.000573
vn 0.352551 0.935793 0.000065
vn 0.202425 0.979298 -0.000074
vn 0.396080 0.918216 -0.000781
vn -0.578195 -0.815899 0.000285
vn -0.686242 -0.727373 -0.000549
vn 0.042748 0.999086 0.000393
vn -0.451094 -0.892476 0.000134
vn 0.173648 0.984807 -0.000679
vn -0.308104 -0.951353 -0.000168
vn -0.500000 -0.866025 -0.000806
vn -0.118873 0.992909 0.000214
vn -0.274768 0.961511 -0.000286
vn -0.153425 -0.988160 0.000379
vn -0.058145 0.998308 -0.000814
vn -0.286803 -0.957989 -0.000643
vn -0.418029 0.908433 0.000307
vn -0.286803 0.957989 -0.000568
vn -0.058145 -0.998308 -0.000824
vn 0.008504 -0.999964 0.000260
vn 0.169986 -0.985446 -0.000382
vn -0.545255 0.838270 0.000062
vn -0.671896 0.740646 -0.000087
vn -0.500000 0.866025 -0.000815
vn -0.796183 0.605056 0.000410
vn 0.323136 -0.946352 0.000282
vn -0.686242 0.727373 -0.000532
vn 0.173648 -0.984808 -0.000471
vn 0.462091 -0.886833 0.000219
vn -0.894407 0.447254 0.000506
vn 0.396080 -0.918216 -0.000835
vn 0.584363 -0.811492 -0.000320
vn -0.835488 0.549509 -0.000781
vn -0.959948 0.280176 0.000317
vn -0.989295 0.145928 -0.000307
vn 0.704900 -0.709306 0.000437
vn -0.939692 0.342020 -0.000790
vn 0.597158 -0.802123 -0.000651
vn -0.998810 0.048761 0.000000
vn -0.993238 0.116093 -0.000800
vn 0.821971 -0.569529 0.000507
vn 0.766044 -0.642787 -0.000828
vn 0.912735 -0.408553 0.000187
vn 0.970978 -0.239168 -0.000226
vn 0.893632 -0.448799 -0.000695
vn 0.997465 -0.071157 0.000282
vn 0.973045 -0.230616 -0.000435
vn 0.996240 0.086634 0.000300
vn 1.000000 0.000000 -0.000815
vn 0.971360 0.237611 -0.000364
vn 0.922828 0.385212 0.000244
vn 0.973045 0.230616 -0.000526
f 1//1 2//1 3//1
f 3//2 2//2 4//2
f 4//3 5//3 6//3
f 2//4 5//4 4//4
f 7//5 8//5 9//5
f 5//6 10//6 6//6
f 6//7 10//7 11//7
f 12//8 8//8 7//8
f 11//9 13//9 14//9
f 9//10 15//10 16//10
f 10//11 13//11 11//11
f 8//12 15//12 9//12
f 14//13 17//13 18//13
f 13//14 17//14 14//14
f 16//15 19//15 20//15
f 15//16 19//16 16//16
f 17//17 21//17 18//17
f 20//18 22//18 23//18
f 19//19 22//19 20//19
f 18//20 24//20 25//20
f 21//21 24//21 18//21
f 23//22 26//22 27//22
f 22//23 26//23 23//23
f 25//24 28//24 29//24
f 24//25 28//25 25//25
f 29//26 30//26 31//26
f 27//27 32//27 33//27
f 28//28 30//28 29//28
f 26//29 32//29 27//29
f 32//30 34//30 33//30
f 33//31 34//31 35//31
f 30//32 36//32 31//32
f 34//33 37//33 35//33
f 35//34 37//34 38//34
f 31//35 39//35 40//35
f 36//36 39//36 31//36
f 37//37 41//37 38//37
f 38//38 41//38 42//38
f 40//39 43//39 44//39
f 39//40 43//40 40//40
f 41//41 45//41 42//41
f 44//42 46//42 47//42
f 45//43 48//43 42//43
f 43//44 46//44 44//44
f 42//45 48//45 49//45
f 46//46 50//46 47//46
f 47//47 50//47 51//47
f 48//48 52//48 49//48
f 49//49 52//49 53//49
f 50//50 54//50 51//50
f 52//51 55//51 53//51
f 53//52 55//52 56//52
f 51//53 54//53 57//53
f 54//54 58//54 57//54
f 57//55 58//55 7//55
f 55//56 59//56 56//56
f 58//57 12//57 7//57
f 56//58 59//58 60//58
f 59//59 61//59 60//59
f 60//60 61//60 62//60
f 61//61 63//61 62//61
f 62//62 63//62 64//62
f 63//63 65//63 64//63
f 65//64 66//64 64//64
f 64//65 66//65 67//65
f 66//66 68//66 67//66
f 67//67 68//67 69//67
f 68//68 70//68 69//68
f 69//69 70//69 3//69
f 70//70 1//70 3//70
f 30//71 71//71 72//71
f 5//72 2//72 73//72
f 73//73 2//73 61//73
f 41//74 74//74 45//74
f 75//75 74//75 41//75
f 2//76 1//76 61//76
f 61//77 1//77 63//77
f 12//78 58//78 8//78
f 30//79 28//79 71//79
f 65//80 68//80 66//80
f 28//81 76//81 71//81
f 65//82 70//82 68//82
f 8//83 54//83 15//83
f 63//84 70//84 65//84
f 1//85 70//85 63//85
f 58//86 54//86 8//86
f 45//87 77//87 48//87
f 74//88 77//88 45//88
f 15//89 50//89 19//89
f 54//90 50//90 15//90
f 28//91 24//91 76//91
f 76//92 24//92 78//92
f 77//93 79//93 48//93
f 79//94 52//94 48//94
f 50//95 46//95 19//95
f 46//96 80//96 19//96
f 19//97 80//97 22//97
f 79//98 81//98 52//98
f 22//99 80//99 82//99
f 22//100 83//100 26//100
f 82//101 83//101 22//101
f 46//102 84//102 80//102
f 78//103 21//103 85//103
f 24//104 21//104 78//104
f 46//105 86//105 84//105
f 21//106 87//106 85//106
f 83//107 88//107 26//107
f 88//108 32//108 26//108
f 81//109 89//109 52//109
f 89//110 55//110 52//110
f 88//111 90//111 32//111
f 46//112 43//112 86//112
f 89//113 91//113 55//113
f 87//114 17//114 92//114
f 86//115 43//115 93//115
f 21//116 17//116 87//116
f 43//117 94//117 93//117
f 90//118 95//118 32//118
f 95//119 34//119 32//119
f 91//120 96//120 55//120
f 95//121 97//121 34//121
f 96//122 59//122 55//122
f 43//123 39//123 94//123
f 94//124 39//124 98//124
f 96//125 99//125 59//125
f 34//126 100//126 37//126
f 97//127 100//127 34//127
f 101//128 13//128 102//128
f 92//129 13//129 101//129
f 17//130 13//130 92//130
f 39//131 103//131 98//131
f 99//132 73//132 59//132
f 100//133 104//133 37//133
f 39//134 36//134 103//134
f 103//135 36//135 105//135
f 104//136 41//136 37//136
f 73//137 61//137 59//137
f 106//138 10//138 107//138
f 102//139 10//139 106//139
f 13//140 10//140 102//140
f 104//141 75//141 41//141
f 10//142 5//142 107//142
f 36//143 30//143 105//143
f 105//144 30//144 72//144
f 108//145 5//145 73//145
f 107//146 5//146 108//146
f 53//147 56//147 109//147
f 53//148 109//148 110//148
f 47//149 111//149 44//149
f 112//150 111//150 47//150
f 49//151 53//151 110//151
f 49//152 110//152 113//152
f 51//153 112//153 47//153
f 51//154 114//154 112//154
f 115//155 6//155 11//155
f 42//156 113//156 116//156
f 42//157 49//157 113//157
f 117//158 3//158 4//158
f 117//159 4//159 6//159
f 57//160 114//160 51//160
f 57//161 118//161 114//161
f 117//162 6//162 115//162
f 119//163 11//163 14//163
f 119//164 115//164 11//164
f 120//165 69//165 3//165
f 120//166 3//166 117//166
f 121//167 14//167 18//167
f 121//168 119//168 14//168
f 122//169 67//169 69//169
f 122//170 69//170 120//170
f 123//171 18//171 25//171
f 123//172 121//172 18//172
f 124//173 64//173 67//173
f 124//174 67//174 122//174
f 7//175 118//175 57//175
f 125//176 25//176 29//176
f 38//177 116//177 126//177
f 38//178 42//178 116//178
f 125//179 123//179 25//179
f 35//180 126//180 127//180
f 35//181 38//181 126//181
f 9//182 128//182 118//182
f 9//183 118//183 7//183
f 129//184 62//184 64//184
f 129//185 64//185 124//185
f 16//186 130//186 128//186
f 16//187 128//187 9//187
f 131//188 29//188 31//188
f 131//189 125//189 29//189
f 33//190 35//190 127//190
f 20//191 132//191 130//191
f 40//192 131//192 31//192
f 20//193 130//193 16//193
f 27//194 127//194 133//194
f 27//195 33//195 127//195
f 134//196 60//196 62//196
f 134//197 62//197 129//197
f 23//198 133//198 132//198
f 23//199 27//199 133//199
f 23//200 132//200 20//200
f 135//201 131//201 40//201
f 56//202 60//202 134//202
f 44//203 135//203 40//203
f 109//204 56//204 134//204
f 111//205 135//205 44//205
f 106//206 117//206 102//206
f 120//207 117//207 106//207
f 80//208 118//208 82//208
f 102//209 115//209 101//209
f 82//210 128//210 83//210
f 101//211 115//211 92//211
f 118//212 128//212 82//212
f 117//213 115//213 102//213
f 83//214 130//214 88//214
f 92//215 119//215 87//215
f 128//216 130//216 83//216
f 115//217 119//217 92//217
f 88//218 132//218 90//218
f 130//219 132//219 88//219
f 87//220 121//220 85//220
f 85//221 121//221 78//221
f 119//222 121//222 87//222
f 90//223 133//223 95//223
f 132//224 133//224 90//224
f 78//225 123//225 76//225
f 95//226 127//226 97//226
f 121//227 123//227 78//227
f 97//228 127//228 100//228
f 133//229 127//229 95//229
f 76//230 125//230 71//230
f 71//231 125//231 72//231
f 100//232 126//232 104//232
f 123//233 125//233 76//233
f 127//234 126//234 100//234
f 72//235 131//235 105//235
f 125//236 131//236 72//236
f 126//237 116//237 104//237
f 104//238 116//238 75//238
f 75//239 116//239 74//239
f 105//240 135//240 103//240
f 103//241 135//241 98//241
f 131//242 135//242 105//242
f 98//243 111//243 94//243
f 74//244 113//244 77//244
f 135//245 111//245 98//245
f 116//246 113//246 74//246
f 77//247 110//247 79//247
f 94//248 112//248 93//248
f 113//249 110//249 77//249
f 79//250 110//250 81//250
f 111//251 112//251 94//251
f 93//252 114//252 86//252
f 86//253 114//253 84//253
f 81//254 109//254 89//254
f 112//255 114//255 93//255
f 110//256 109//256 81//256
f 84//257 118//257 80//257
f 114//258 118//258 84//258
f 89//259 134//259 91//259
f 109//260 134//260 89//260
f 91//261 129//261 96//261
f 96//262 129//262 99//262
f 134//263 129//263 91//263
f 99//264 124//264 73//264
f 129//265 124//265 99//265
f 73//266 122//266 108//266
f 124//267 122//267 73//267
f 108//268 120//268 107//268
f 107//269 120//269 106//269
f 122//270 120//270 108//270
